<svg width="20" height="20" viewBox="0 0 20 20" fill="none" xmlns="http://www.w3.org/2000/svg">
<path d="M19.2613 13.7227L15.0274 11.9063C14.784 11.8025 14.5136 11.7803 14.2566 11.843C13.9996 11.9056 13.7698 12.0498 13.6016 12.2539L11.8789 14.3594C9.16935 13.0268 6.97719 10.8346 5.64454 8.12503L7.75001 6.40237C7.9541 6.23418 8.09826 6.00444 8.16093 5.7475C8.22359 5.49057 8.2014 5.22025 8.09766 4.97698L6.28126 0.738702C6.16768 0.475883 5.96555 0.261205 5.71004 0.132022C5.45452 0.00283931 5.16181 -0.0326707 4.88282 0.0316711L0.945321 0.941827C0.676169 1.0027 0.435822 1.15354 0.263958 1.36944C0.0920932 1.58533 -0.00101347 1.85338 8.3213e-06 2.12933C8.3213e-06 12.0235 8.01954 20 17.8707 20C18.1476 20.0005 18.4164 19.9069 18.633 19.7343C18.8496 19.5618 19.0011 19.3208 19.0625 19.0508L19.9684 15.1172C20.0326 14.8388 19.9971 14.5466 19.8678 14.2917C19.7386 14.0368 19.5239 13.8354 19.2613 13.7227ZM17.8473 18.75C8.68751 18.7383 1.26173 11.3164 1.25391 2.15667L5.14454 1.25823L6.94141 5.45315L4.09766 7.77737C5.98829 11.8086 8.1797 14.0078 12.2266 15.9063L14.5508 13.0625L18.7457 14.8594L17.8473 18.75Z" fill="#FDCE23"/>
</svg>
