<svg width="20" height="15" viewBox="0 0 20 15" fill="none" xmlns="http://www.w3.org/2000/svg">
<path d="M8.33334 11.875C8.13863 11.8752 7.94993 11.8244 7.8 11.7312C7.71562 11.6787 7.64587 11.6143 7.59474 11.5416C7.54361 11.4689 7.51212 11.3893 7.50205 11.3074C7.49199 11.2256 7.50356 11.143 7.5361 11.0645C7.56863 10.986 7.6215 10.9131 7.69167 10.85L11.425 7.49996L7.825 4.14371C7.75578 4.07978 7.70409 4.00622 7.67289 3.92726C7.6417 3.8483 7.63162 3.76549 7.64324 3.6836C7.65485 3.60171 7.68794 3.52234 7.74058 3.45007C7.79323 3.3778 7.8644 3.31404 7.95 3.26246C8.03622 3.20556 8.13719 3.16265 8.24658 3.1364C8.35597 3.11016 8.4714 3.10116 8.58565 3.10996C8.69989 3.11877 8.81048 3.14518 8.91046 3.18756C9.01045 3.22994 9.09767 3.28735 9.16667 3.35621L13.1917 7.10621C13.3142 7.21805 13.3812 7.35832 13.3812 7.50309C13.3812 7.64785 13.3142 7.78813 13.1917 7.89996L9.025 11.65C8.9414 11.7256 8.83521 11.7854 8.71503 11.8245C8.59486 11.8636 8.46409 11.8809 8.33334 11.875Z" fill="#666666"/>
</svg>
